<svg version="1.1" viewBox="0 0 104 104" xmlns="http://www.w3.org/2000/svg"><path d="m34.8 39.6h-15.8c-0.457 0-0.896 0.181-1.22 0.505l-6.39 6.39h-1.33c-0.713-2-2.61-3.45-4.85-3.45-2.85 0-5.17 2.32-5.17 5.17s2.32 5.17 5.17 5.17c2.24 0 4.14-1.45 4.85-3.45h2.04c0.457 0 0.896-0.181 1.22-0.505l6.39-6.39h15.1c0.713 2 2.61 3.45 4.85 3.45 1.31 0 2.49-0.505 3.4-1.31l7.02 3.91c-0.0465 0.277-0.0861 0.558-0.0861 0.849 0 2.85 2.32 5.17 5.17 5.17s5.17-2.32 5.17-5.17c0-0.291-0.0396-0.572-0.0861-0.849l7.02-3.91c0.911 0.805 2.09 1.31 3.4 1.31 2.85 0 5.17-2.32 5.17-5.17 0-2.24-1.45-4.14-3.45-4.85v-7.53c2-0.713 3.45-2.61 3.45-4.85 0-2.85-2.32-5.17-5.17-5.17-1.31 0-2.49 0.505-3.4 1.31l-7.02-3.91c0.0465-0.276 0.0861-0.556 0.0861-0.848 0-2.85-2.32-5.17-5.17-5.17s-5.17 2.32-5.17 5.17c0 0.291 0.0396 0.572 0.0861 0.849l-7.02 3.91c-0.911-0.805-2.09-1.31-3.4-1.31-2.24 0-4.14 1.45-4.85 3.45h-15.1l-6.39-6.39c-0.322-0.324-0.762-0.505-1.22-0.505h-2.04c-0.713-2-2.61-3.45-4.85-3.45-2.85 0-5.17 2.32-5.17 5.17s2.32 5.17 5.17 5.17c2.24 0 4.14-1.45 4.85-3.45h1.33l6.39 6.39c0.322 0.324 0.762 0.505 1.22 0.505h15.8c0.52 1.46 1.67 2.61 3.13 3.13v2.04h-27.9c-0.713-2-2.61-3.45-4.85-3.45-2.85 0-5.17 2.32-5.17 5.17s2.32 5.17 5.17 5.17c2.24 0 4.14-1.45 4.85-3.45h27.9v2.04c-1.46 0.52-2.61 1.67-3.13 3.13zm-29.6 10.3c-0.949 0-1.72-0.774-1.72-1.72s0.774-1.72 1.72-1.72 1.72 0.774 1.72 1.72-0.774 1.72-1.72 1.72zm0-31c-0.949 0-1.72-0.774-1.72-1.72 0-0.949 0.774-1.72 1.72-1.72s1.72 0.774 1.72 1.72c0 0.949-0.774 1.72-1.72 1.72zm0 15.5c-0.949 0-1.72-0.774-1.72-1.72 0-0.949 0.774-1.72 1.72-1.72s1.72 0.774 1.72 1.72c0 0.949-0.774 1.72-1.72 1.72zm34.5 8.61c-0.949 0-1.72-0.774-1.72-1.72s0.774-1.72 1.72-1.72c0.949 0 1.72 0.774 1.72 1.72s-0.774 1.72-1.72 1.72zm3.4-15.1 7.02 3.91c-0.0465 0.277-0.0861 0.558-0.0861 0.849s0.0396 0.572 0.0861 0.849l-7.02 3.91c-0.489-0.431-1.05-0.768-1.68-0.992v-7.53c0.625-0.222 1.19-0.558 1.68-0.991zm24.2 9.51-7.02-3.91c0.0465-0.277 0.0861-0.558 0.0861-0.849s-0.0396-0.572-0.0861-0.849l7.02-3.91c0.489 0.431 1.05 0.768 1.68 0.992v7.53c-0.625 0.222-1.19 0.558-1.68 0.991zm-22.5 3.01 7.02-3.91c0.489 0.431 1.05 0.768 1.68 0.992v7.53c-0.625 0.224-1.19 0.56-1.68 0.992l-7.02-3.91c0.0465-0.279 0.0861-0.56 0.0861-0.851s-0.0396-0.572-0.0861-0.849zm10.4-9.49c0.949 0 1.72 0.774 1.72 1.72 0 0.949-0.774 1.72-1.72 1.72-0.949 0-1.72-0.774-1.72-1.72 0-0.949 0.774-1.72 1.72-1.72zm1.72 6.57c0.625-0.224 1.19-0.56 1.68-0.992l7.02 3.91c-0.0465 0.277-0.0861 0.558-0.0861 0.849s0.0396 0.572 0.0861 0.849l-7.02 3.91c-0.489-0.431-1.05-0.768-1.68-0.992zm8.7-12.6-7.02 3.91c-0.489-0.431-1.05-0.768-1.68-0.992v-7.53c0.625-0.224 1.19-0.56 1.68-0.992l7.02 3.91c-0.0465 0.279-0.0861 0.56-0.0861 0.851 0 0.291 0.0396 0.572 0.0861 0.849zm-12.1 2.91c-0.625 0.224-1.19 0.56-1.68 0.992l-7.02-3.91c0.0465-0.277 0.0861-0.558 0.0861-0.849 0-0.291-0.0396-0.572-0.0861-0.849l7.02-3.91c0.489 0.431 1.05 0.768 1.68 0.992zm1.72 23.8c-0.949 0-1.72-0.774-1.72-1.72 0-0.949 0.774-1.72 1.72-1.72 0.949 0 1.72 0.774 1.72 1.72 0 0.949-0.774 1.72-1.72 1.72zm15.5-8.61c-0.949 0-1.72-0.774-1.72-1.72s0.774-1.72 1.72-1.72 1.72 0.774 1.72 1.72-0.774 1.72-1.72 1.72zm0-20.7c0.949 0 1.72 0.774 1.72 1.72 0 0.949-0.774 1.72-1.72 1.72s-1.72-0.774-1.72-1.72c0-0.949 0.774-1.72 1.72-1.72zm-15.5-8.61c0.949 0 1.72 0.774 1.72 1.72s-0.774 1.72-1.72 1.72c-0.949 0-1.72-0.774-1.72-1.72s0.774-1.72 1.72-1.72zm-15.5 8.61c0.949 0 1.72 0.774 1.72 1.72 0 0.949-0.774 1.72-1.72 1.72-0.949 0-1.72-0.774-1.72-1.72 0-0.949 0.774-1.72 1.72-1.72z" fill="#00f3bb"/><path d="m36.2 103h27.6c0.951 0 1.72-0.772 1.72-1.72v-12.1h22.4c0.951 0 1.72-0.772 1.72-1.72v-20.7h12.1c1.63-0.0164 1.83-1.11 1.65-2.24l-8.59-27.5c-0.345-10.5-4.76-20.1-12.5-27.2-7.79-7.19-18-10.8-28.6-10.2-12.2 0.715-23.6 7.43-30.3 18l2.9 1.86c6.16-9.6 16.5-15.7 27.6-16.4 9.68-0.57 18.9 2.73 26 9.28 7.12 6.57 11.2 15.5 11.4 25.2 0.0069 0.298 0.0948 0.579 0.243 0.822l7.79 24.9h-11.4c-0.951 0-1.72 0.772-1.72 1.72v6.89h-5.17c-2.85 0-5.17-2.32-5.17-5.17h-3.45c0 4.75 3.86 8.61 8.61 8.61h5.17v10.3h-22.4c-0.951 0-1.72 0.772-1.72 1.72v12.1h-24.1v-1.67c0-13.9-4.19-28.2-12.1-41.2-1.75-2.88-3.08-5.99-3.94-9.24l-3.33 0.882c0.946 3.57 2.4 6.99 4.33 10.2 7.6 12.5 11.6 26.1 11.6 39.4v3.39c0 0.951 0.772 1.72 1.72 1.72z" fill="#0000ec"/></svg>
