<svg version="1.1" viewBox="0 0 104 104" xmlns="http://www.w3.org/2000/svg"><path d="m104 39.9v-27.7c0-0.459-0.182-0.901-0.508-1.23l-10.4-10.4c-0.324-0.326-0.764-0.508-1.23-0.508h-17.3c-0.959 0-1.73 0.777-1.73 1.73v38.1c0 0.957 0.775 1.73 1.73 1.73h12.1c0 2.87-2.33 5.2-5.2 5.2h-5.2c-4.78 0-8.67 3.89-8.67 8.67v2.75l-3.97-3.97-2.45 2.45 6.93 6.93c0.909 0.722 1.63 0.705 2.45 0l6.93-6.93-2.45-2.45-3.97 3.97v-2.75c0-2.87 2.33-5.2 5.2-5.2h5.2c4.78 0 8.67-3.89 8.67-8.67h12.1c0.959 0 1.73-0.777 1.73-1.73zm-10.4-33.9 4.48 4.48h-4.48zm-17.3 32.2v-34.7h13.9v8.67c0 0.957 0.775 1.73 1.73 1.73h8.67v24.3zm-74.5 3.47h12.1c0 4.78 3.89 8.67 8.67 8.67h5.2c2.87 0 5.2 2.33 5.2 5.2v2.75l-3.97-3.97-2.45 2.45 6.93 6.93c0.909 0.722 1.61 0.712 2.45 0l6.93-6.93-2.45-2.45-3.97 3.97v-2.75c0-4.78-3.89-8.67-8.67-8.67h-5.2c-2.87 0-5.2-2.33-5.2-5.2h12.1c0.959 0 1.73-0.777 1.73-1.73v-27.7c0-0.459-0.182-0.901-0.508-1.23l-10.4-10.4c-0.324-0.326-0.764-0.508-1.23-0.508h-17.3c-0.959 0-1.73 0.777-1.73 1.73v38.1c0 0.957 0.775 1.73 1.73 1.73zm19.1-35.7 4.48 4.48h-4.48zm-17.3-2.45h13.9v8.67c0 0.957 0.775 1.73 1.73 1.73h8.67v24.3h-24.3zm91.9 86.7v-13.9c0-0.77-0.508-1.45-1.25-1.66l-40.4-11.8v-21.2h12.1c0.959 0 1.73-0.777 1.73-1.73v-27.7c0-0.459-0.182-0.901-0.508-1.23l-10.4-10.4c-0.324-0.326-0.764-0.508-1.23-0.508h-17.3c-0.959 0-1.73 0.777-1.73 1.73v38.1c0 0.957 0.775 1.73 1.73 1.73h12.1v21.2l-40.4 11.8c-0.74 0.217-1.25 0.894-1.25 1.66v13.9c0 0.77 0.508 1.45 1.25 1.66l41.6 12.1c0.362 0.115 0.721 0.0694 0.971 3e-5l41.6-12.1c0.74-0.217 1.25-0.894 1.25-1.66zm-38.1-84.2 4.48 4.48h-4.48zm-17.3-2.45h13.9v8.67c0 0.957 0.775 1.73 1.73 1.73h8.67v24.3h-24.3zm10.4 63v9.11l-3.97-3.97-2.45 2.45 6.93 6.93c0.909 0.722 1.66 0.665 2.45 0l6.93-6.93-2.45-2.45-3.97 3.97v-9.11l33.7 9.82-35.4 10.3-35.4-10.3zm-38.1 12.1 38.1 11.1v10.3l-38.1-11.1zm41.6 21.4v-10.3l38.1-11.1v10.3z" fill="#0000ec"/><path d="m57.2 31.2h3.47v3.47h-3.47zm-6.93 0h3.47v3.47h-3.47zm-6.93 0h3.47v3.47h-3.47zm36.4-20.8h6.93v3.47h-6.93zm0 20.8h17.3v3.47h-17.3zm0-6.93h17.3v3.47h-17.3zm0-6.93h17.3v3.47h-17.3zm-72.8-6.93h6.93v3.47h-6.93zm0 20.8h17.3v3.47h-17.3zm0-6.93h17.3v3.47h-17.3zm0-6.93h17.3v3.47h-17.3zm36.4-6.93h6.93v3.47h-6.93zm0 13.9h17.3v3.47h-17.3zm0-6.93h17.3v3.47h-17.3z" fill="#00f3bb"/></svg>
