<svg version="1.1" viewBox="0 0 104 104" xmlns="http://www.w3.org/2000/svg"><path d="m19.1 60.7h65.9c0.957 0 1.73-0.777 1.73-1.73v-50.3c0-0.957-0.777-1.73-1.73-1.73h-65.9c-0.957 0-1.73 0.777-1.73 1.73v50.3c0 0.957 0.777 1.73 1.73 1.73zm1.73-50.3h62.4v46.8h-62.4zm-12.1 93.6h86.7c4.78 0 8.67-3.89 8.67-8.67v-1.73h-0.0121c0-0.205-0.0243-0.411-0.0971-0.608l-10.3-27.4v-56.9c0-4.78-3.89-8.67-8.67-8.67h-65.9c-4.78 0-8.67 3.89-8.67 8.67v56.9l-10.3 27.4c-0.0728 0.198-0.0971 0.404-0.0971 0.608h-0.0121v1.73c0 4.78 3.89 8.67 8.67 8.67zm86.7-3.47h-86.7c-2.87 0-5.2-2.33-5.2-5.2h33.9l1.23 1.23c0.324 0.326 0.766 0.508 1.23 0.508h24.3c0.459 0 0.901-0.182 1.23-0.508l1.23-1.23h33.9c0 2.87-2.33 5.2-5.2 5.2zm-76.3-97.1h65.9c2.87 0 5.2 2.33 5.2 5.2v55.5h-76.3v-55.5c0-2.87 2.33-5.2 5.2-5.2zm-5.73 64.1h77.3l9.1 24.3h-33.9c-0.459 0-0.901 0.182-1.23 0.508l-1.23 1.23h-22.8l-1.23-1.23c-0.324-0.326-0.766-0.508-1.23-0.508h-33.9zm68.1 3.47h6.93v3.47h-6.93zm-12.1 0h6.93v3.47h-6.93zm-12.1 0h6.93v3.47h-6.93zm-12.1 0h6.93v3.47h-6.93zm-12.1 0h6.93v3.47h-6.93zm-15.6 0h3.47v3.47h-3.47zm6.93 0h3.47v3.47h-3.47zm53.7 6.93h12.1v3.47h-12.1zm-12.1 0h6.93v3.47h-6.93zm-12.1 0h6.93v3.47h-6.93zm-12.1 0h6.93v3.47h-6.93zm-12.1 0h6.93v3.47h-6.93zm-15.6 0h10.4v3.47h-10.4zm71.1 6.93h6.93v3.47h-6.93zm-12.1 0h6.93v3.47h-6.93zm-36.4 0h31.2v3.47h-31.2zm-12.1 0h6.93v3.47h-6.93zm-12.1 0h6.93v3.47h-6.93z" fill="#0000ec"/><path d="m62.4 15.6h3.47v3.47h-3.47zm3.47 6.93h-3.47v3.47h1.73v5.2h3.47v-6.93c0-0.957-0.777-1.73-1.73-1.73zm-38.1 26h3.47v3.47h-3.47zm6.93 0h3.47v3.47h-3.47zm6.93 0h3.47v3.47h-3.47zm24.1-7.89-5.2 10.4-3.1-1.55 5.2-10.4zm6.61-2-2.45 2.45 3.97 3.97-3.97 3.97 2.45 2.45 5.2-5.2c0.678-0.678 0.678-1.77 0-2.45zm-19.8 0-5.2 5.2c-0.678 0.678-0.678 1.77 0 2.45l5.2 5.2 2.45-2.45-3.97-3.97 3.97-3.97zm-2.75-24.3-2.45 2.45 3.97 3.97-3.97 3.97 2.45 2.45 5.2-5.2c0.678-0.678 0.678-1.77 0-2.45zm-19.8 0-5.2 5.2c-0.678 0.678-0.678 1.77 0 2.45l5.2 5.2 2.45-2.45-3.97-3.97 3.97-3.97z" fill="#00f3bb"/></svg>
