<svg version="1.1" viewBox="0 0 104 104" xmlns="http://www.w3.org/2000/svg"><path d="m91.3 25.8c0.457 0 0.896-0.181 1.22-0.505l6.89-6.89c0.324-0.322 0.505-0.762 0.505-1.22v-7.21c2-0.713 3.45-2.61 3.45-4.85 0-2.85-2.32-5.17-5.17-5.17-2.85 0-5.17 2.32-5.17 5.17 0 2.24 1.45 4.14 3.45 4.85v6.5l-5.88 5.88h-20.9c-1.25-0.774-2.53-1.49-3.86-2.1-0.126-0.0569-0.258-0.0827-0.391-0.107v-7.42l5.88-5.88h3.05c0.713 2 2.61 3.45 4.85 3.45 2.85 0 5.17-2.32 5.17-5.17 0-2.85-2.32-5.17-5.17-5.17-2.24 0-4.14 1.45-4.85 3.45h-3.76c-0.457 0-0.896 0.181-1.22 0.505l-6.89 6.89c-0.324 0.322-0.505 0.762-0.505 1.22v10.6l-1.14 1.22c-1.07-0.353-2.16-0.644-3.26-0.872l-1.01-4.31c-0.167-0.718-0.775-1.25-1.51-1.32-0.579-0.0569-1.14-0.0569-1.7-0.0844v-7.3c2-0.713 3.45-2.61 3.45-4.85 0-2.85-2.32-5.17-5.17-5.17s-5.17 2.32-5.17 5.17c0 2.24 1.45 4.14 3.45 4.85v7.3c-0.565 0.0293-1.12 0.0276-1.7 0.0844-0.734 0.0724-1.34 0.605-1.51 1.32l-1.01 4.31c-1.1 0.227-2.19 0.519-3.26 0.872l-1.14-1.22v-10.6c0-0.457-0.181-0.896-0.505-1.22l-6.89-6.89c-0.322-0.324-0.762-0.505-1.22-0.505h-3.76c-0.713-2-2.61-3.45-4.85-3.45-2.85 0-5.17 2.32-5.17 5.17 0 2.85 2.32 5.17 5.17 5.17 2.24 0 4.14-1.45 4.85-3.45h3.05l5.88 5.88v7.42l-4.25 2.2h-20.9l-5.88-5.88v-6.5c2-0.713 3.45-2.61 3.45-4.85 0-2.85-2.32-5.17-5.17-5.17-2.85 0-5.17 2.32-5.17 5.17 0 2.24 1.45 4.14 3.45 4.85v7.21c0 0.457 0.181 0.896 0.505 1.22l6.89 6.89c0.322 0.324 0.762 0.505 1.22 0.505h18.9l1.21 3.97c-0.844 0.753-1.65 1.56-2.4 2.4l-4.18-1.27c-0.703-0.215-1.47 0.0414-1.9 0.641-0.667 0.927-1.29 1.89-1.86 2.87h-6.69c-0.712-2-2.61-3.45-4.85-3.45-2.85 0-5.17 2.32-5.17 5.17s2.32 5.17 5.17 5.17c2.24 0 4.14-1.45 4.85-3.45h5.01c-0.109 0.57 0.062 1.17 0.5 1.58l3.21 3.01c-0.353 1.07-0.644 2.16-0.872 3.26l-4.31 1.01c-0.718 0.167-1.25 0.775-1.32 1.51-0.0569 0.579-0.0569 1.13-0.0861 1.7h-7.29c-0.713-2-2.61-3.45-4.85-3.45-2.85 0-5.17 2.32-5.17 5.17s2.32 5.17 5.17 5.17c2.24 0 4.14-1.45 4.85-3.45h7.3c0.0293 0.569 0.0293 1.12 0.0861 1.7 0.0724 0.734 0.605 1.34 1.32 1.51l4.31 1.01c0.227 1.1 0.519 2.19 0.872 3.26l-3.21 3.01c-0.438 0.41-0.608 1.01-0.5 1.58h-5.01c-0.715-2-2.61-3.45-4.85-3.45-2.85 0-5.17 2.32-5.17 5.17s2.32 5.17 5.17 5.17c2.24 0 4.14-1.45 4.85-3.45h6.69c0.572 0.985 1.19 1.95 1.86 2.87 0.431 0.598 1.19 0.856 1.9 0.641l4.18-1.27c0.753 0.846 1.56 1.65 2.4 2.4l-1.21 3.97h-18.9c-0.457 0-0.896 0.181-1.22 0.505l-6.89 6.89c-0.324 0.322-0.505 0.762-0.505 1.22v7.21c-2 0.713-3.45 2.61-3.45 4.85 0 2.85 2.32 5.17 5.17 5.17 2.85 0 5.17-2.32 5.17-5.17 0-2.24-1.45-4.14-3.45-4.85v-6.5l5.88-5.88h20.9l4.25 2.2v7.42l-5.88 5.88h-3.05c-0.713-2-2.61-3.45-4.85-3.45-2.85 0-5.17 2.32-5.17 5.17 0 2.85 2.32 5.17 5.17 5.17 2.24 0 4.14-1.45 4.85-3.45h3.76c0.457 0 0.896-0.181 1.22-0.505l6.89-6.89c0.324-0.322 0.505-0.762 0.505-1.22v-10.6l1.14-1.22 3.26 0.872 1.01 4.31c0.167 0.718 0.775 1.25 1.51 1.32 0.579 0.0568 1.13 0.0568 1.7 0.0861v7.3c-2 0.713-3.45 2.61-3.45 4.85 0 2.85 2.32 5.17 5.17 5.17s5.17-2.32 5.17-5.17c0-2.24-1.45-4.14-3.45-4.85v-7.3c0.569-0.0293 1.12-0.0293 1.7-0.0861 0.734-0.0724 1.34-0.605 1.51-1.32l1.01-4.31 3.26-0.872 1.14 1.22v10.6c0 0.457 0.181 0.896 0.505 1.22l6.89 6.89c0.322 0.324 0.762 0.505 1.22 0.505h3.76c0.713 2 2.61 3.45 4.85 3.45 2.85 0 5.17-2.32 5.17-5.17 0-2.85-2.32-5.17-5.17-5.17-2.24 0-4.14 1.45-4.85 3.45h-3.05l-5.88-5.88v-7.42l4.25-2.2h20.9l5.88 5.88v6.5c-2 0.713-3.45 2.61-3.45 4.85 0 2.85 2.32 5.17 5.17 5.17 2.85 0 5.17-2.32 5.17-5.17 0-2.24-1.45-4.14-3.45-4.85v-7.21c0-0.457-0.181-0.896-0.505-1.22l-6.89-6.89c-0.322-0.324-0.762-0.505-1.22-0.505h-18.9l-1.21-3.97c0.846-0.753 1.65-1.56 2.4-2.4l4.17 1.27c0.705 0.214 1.47-0.0431 1.9-0.641 0.668-0.927 1.29-1.89 1.86-2.87h6.69c0.713 2 2.61 3.45 4.85 3.45 2.85 0 5.17-2.32 5.17-5.17s-2.32-5.17-5.17-5.17c-2.24 0-4.14 1.45-4.85 3.45h-5.01c0.109-0.57-0.062-1.17-0.5-1.58l-3.21-3.01c0.353-1.07 0.644-2.16 0.872-3.26l4.31-1.01c0.718-0.167 1.25-0.775 1.32-1.51 0.0568-0.579 0.0568-1.13 0.0861-1.7h7.3c0.713 2 2.61 3.45 4.85 3.45 2.85 0 5.17-2.32 5.17-5.17s-2.32-5.17-5.17-5.17c-2.24 0-4.14 1.45-4.85 3.45h-7.3c-0.0293-0.569-0.0293-1.12-0.0861-1.7-0.0724-0.734-0.605-1.34-1.32-1.51l-4.31-1.01c-0.227-1.1-0.519-2.19-0.872-3.26l3.21-3.01c0.438-0.41 0.608-1.01 0.5-1.58h5.01c0.713 2 2.61 3.45 4.85 3.45 2.85 0 5.17-2.32 5.17-5.17s-2.32-5.17-5.17-5.17c-2.24 0-4.14 1.45-4.85 3.45h-6.69c-0.572-0.985-1.19-1.95-1.86-2.87-0.431-0.598-1.19-0.856-1.9-0.641l-4.18 1.27c-0.753-0.846-1.56-1.65-2.4-2.4l1.21-3.97zm6.89-22.4c0.949 0 1.72 0.774 1.72 1.72s-0.774 1.72-1.72 1.72c-0.949 0-1.72-0.774-1.72-1.72s0.774-1.72 1.72-1.72zm-19 0c0.949 0 1.72 0.774 1.72 1.72s-0.774 1.72-1.72 1.72c-0.949 0-1.72-0.774-1.72-1.72s0.774-1.72 1.72-1.72zm-55.1 3.45c-0.949 0-1.72-0.774-1.72-1.72s0.774-1.72 1.72-1.72c0.949 0 1.72 0.774 1.72 1.72s-0.774 1.72-1.72 1.72zm-19-3.45c0.949 0 1.72 0.774 1.72 1.72s-0.774 1.72-1.72 1.72-1.72-0.774-1.72-1.72 0.774-1.72 1.72-1.72zm5.17 34.5c-0.949 0-1.72-0.774-1.72-1.72 0-0.949 0.774-1.72 1.72-1.72 0.949 0 1.72 0.774 1.72 1.72 0 0.949-0.774 1.72-1.72 1.72zm0 31c-0.949 0-1.72-0.774-1.72-1.72s0.774-1.72 1.72-1.72c0.949 0 1.72 0.774 1.72 1.72s-0.774 1.72-1.72 1.72zm-5.17 31c-0.949 0-1.72-0.774-1.72-1.72 0-0.949 0.774-1.72 1.72-1.72s1.72 0.774 1.72 1.72c0 0.949-0.774 1.72-1.72 1.72zm19 0c-0.949 0-1.72-0.774-1.72-1.72 0-0.949 0.774-1.72 1.72-1.72 0.949 0 1.72 0.774 1.72 1.72 0 0.949-0.774 1.72-1.72 1.72zm55.1-3.45c0.949 0 1.72 0.774 1.72 1.72 0 0.949-0.774 1.72-1.72 1.72-0.949 0-1.72-0.774-1.72-1.72 0-0.949 0.774-1.72 1.72-1.72zm19 3.45c-0.949 0-1.72-0.774-1.72-1.72 0-0.949 0.774-1.72 1.72-1.72 0.949 0 1.72 0.774 1.72 1.72 0 0.949-0.774 1.72-1.72 1.72zm-5.17-34.5c0.949 0 1.72 0.774 1.72 1.72s-0.774 1.72-1.72 1.72-1.72-0.774-1.72-1.72 0.774-1.72 1.72-1.72zm0-31c0.949 0 1.72 0.774 1.72 1.72 0 0.949-0.774 1.72-1.72 1.72s-1.72-0.774-1.72-1.72c0-0.949 0.774-1.72 1.72-1.72zm-41.3-31c0.949 0 1.72 0.774 1.72 1.72s-0.774 1.72-1.72 1.72c-0.949 0-1.72-0.774-1.72-1.72s0.774-1.72 1.72-1.72zm-46.5 50c-0.949 0-1.72-0.774-1.72-1.72 0-0.949 0.774-1.72 1.72-1.72s1.72 0.774 1.72 1.72c0 0.949-0.774 1.72-1.72 1.72zm46.5 46.5c-0.949 0-1.72-0.774-1.72-1.72 0-0.949 0.774-1.72 1.72-1.72 0.949 0 1.72 0.774 1.72 1.72 0 0.949-0.774 1.72-1.72 1.72zm46.5-50c0.949 0 1.72 0.774 1.72 1.72 0 0.949-0.774 1.72-1.72 1.72-0.949 0-1.72-0.774-1.72-1.72 0-0.949 0.774-1.72 1.72-1.72zm-26.5-14.7c0.441 0.538 1.16 0.755 1.83 0.553l4.05-1.23c0.687 1.04 1.31 2.12 1.87 3.22l-3.11 2.92c-0.508 0.476-0.681 1.21-0.434 1.86 0.586 1.56 1.02 3.19 1.3 4.84 0.114 0.686 0.629 1.24 1.31 1.4l4.18 0.975-0.0017 3.73-4.18 0.975c-0.679 0.159-1.19 0.71-1.31 1.4-0.274 1.66-0.712 3.29-1.3 4.84-0.245 0.651-0.0724 1.39 0.434 1.86l3.11 2.92c-0.556 1.11-1.18 2.18-1.87 3.22l-4.05-1.23c-0.667-0.202-1.39 0.0155-1.83 0.553-1.07 1.3-2.26 2.49-3.56 3.56-0.538 0.443-0.756 1.16-0.553 1.83l1.23 4.05c-1.04 0.687-2.12 1.31-3.22 1.87l-2.92-3.11c-0.477-0.508-1.22-0.681-1.86-0.434-1.56 0.586-3.19 1.02-4.84 1.3-0.686 0.114-1.24 0.629-1.4 1.31l-0.975 4.18c-1.27 0.0775-2.46 0.0775-3.73 0l-0.975-4.18c-0.159-0.679-0.71-1.19-1.4-1.31-1.66-0.274-3.29-0.712-4.84-1.3-0.655-0.246-1.39-0.0724-1.86 0.434l-2.92 3.11c-1.11-0.555-2.18-1.18-3.22-1.87l1.23-4.05c0.203-0.667-0.0155-1.39-0.553-1.83-1.3-1.07-2.49-2.26-3.56-3.56-0.443-0.539-1.17-0.758-1.83-0.553l-4.05 1.23c-0.687-1.04-1.31-2.12-1.87-3.22l3.11-2.92c0.508-0.476 0.681-1.21 0.434-1.86-0.586-1.56-1.02-3.19-1.3-4.84-0.114-0.686-0.629-1.24-1.31-1.4l-4.18-0.975c-0.0379-0.634-0.0568-1.26-0.0568-1.86s0.019-1.23 0.0586-1.86l4.18-0.975c0.679-0.159 1.19-0.71 1.31-1.4 0.274-1.66 0.712-3.29 1.3-4.84 0.245-0.651 0.0724-1.39-0.434-1.86l-3.11-2.92c0.556-1.11 1.18-2.18 1.87-3.22l4.05 1.23c0.668 0.205 1.39-0.0138 1.83-0.553 1.07-1.3 2.27-2.49 3.56-3.56 0.538-0.443 0.756-1.16 0.553-1.83l-1.23-4.05c1.04-0.687 2.12-1.31 3.22-1.87l2.92 3.11c0.476 0.507 1.21 0.679 1.86 0.434 1.56-0.586 3.19-1.02 4.84-1.3 0.686-0.114 1.24-0.629 1.4-1.31l0.975-4.18c1.27-0.0775 2.46-0.0775 3.73 0l0.975 4.18c0.159 0.679 0.71 1.19 1.4 1.31 1.66 0.274 3.29 0.712 4.84 1.3 0.651 0.243 1.39 0.0724 1.86-0.434l2.92-3.11c1.11 0.555 2.18 1.18 3.22 1.87l-1.23 4.05c-0.203 0.667 0.0155 1.39 0.553 1.83 1.3 1.07 2.49 2.27 3.56 3.57z" fill="#0000ec"/><path d="m51.7 32.7c-7.71 0-15.5 2.37-15.5 6.89v25.8c0 4.52 7.8 6.89 15.5 6.89s15.5-2.37 15.5-6.89v-25.8c0-4.52-7.8-6.89-15.5-6.89zm0 36.2c-7.83 0-12.1-2.44-12.1-3.45v-4.13c2.99 1.59 7.54 2.41 12.1 2.41s9.07-0.822 12.1-2.41v4.13c0 1-4.23 3.45-12.1 3.45zm0-8.61c-7.83 0-12.1-2.44-12.1-3.45v-4.13c2.99 1.59 7.54 2.41 12.1 2.41s9.07-0.822 12.1-2.41v4.13c0 1-4.23 3.45-12.1 3.45zm0-8.61c-7.83 0-12.1-2.44-12.1-3.45v-4.13c2.99 1.59 7.54 2.41 12.1 2.41s9.07-0.822 12.1-2.41v4.13c0 1-4.23 3.45-12.1 3.45zm0-8.61c-7.83 0-12.1-2.44-12.1-3.45 0-1 4.23-3.45 12.1-3.45s12.1 2.44 12.1 3.45c0 1-4.23 3.45-12.1 3.45z" fill="#00f3bb"/></svg>
