<svg version="1.1" viewBox="0 0 256 256" xmlns="http://www.w3.org/2000/svg"><g fill="#242319"><path d="m227 85.1c-13.6-7.86-27.2-15.7-40.8-23.6-1.24-0.663-2.81-0.639-4.04 0.0511-0.714 0.386-1.29 0.991-1.69 1.7-2.47 4.29-4.96 8.59-7.43 12.9-5.42 9.39-10.8 18.8-16.3 28.2-0.884 1.63-0.53 3.82 0.838 5.07 0.672 0.623 1.53 0.989 2.3 1.47 13.2 7.64 26.5 15.3 39.7 22.9 1.63 0.87 3.81 0.505 5.06-0.863 0.612-0.666 0.974-1.51 1.45-2.27 1.81-3.14 3.64-6.28 5.43-9.43 0.828-1.65 0.406-3.84-1-5.04-0.657-0.566-1.46-0.918-2.19-1.37-4.1-2.37-8.21-4.73-12.3-7.12-0.401-0.311-0.489-0.951-0.179-1.36 2.02-3.5 4.04-7.01 6.07-10.5 0.233-0.512 0.958-0.692 1.41-0.367 4.62 2.66 9.23 5.34 13.9 7.99 1.65 0.849 3.85 0.437 5.07-0.976 0.572-0.658 0.925-1.47 1.38-2.2 1.81-3.14 3.63-6.27 5.42-9.42 0.828-1.65 0.407-3.83-0.997-5.04-0.316-0.279-0.672-0.509-1.04-0.709zm-41.8-0.1c1.5 0.879 3.01 1.73 4.51 2.62 0.392 0.313 0.49 0.939 0.185 1.35-2.03 3.52-4.06 7.05-6.11 10.6-0.253 0.489-0.966 0.63-1.4 0.306-1.53-0.878-3.06-1.75-4.57-2.65-0.229-0.154-0.348-0.38-0.392-0.648-0.0558-0.293 0.0615-0.579 0.226-0.816 2.03-3.53 4.06-7.06 6.11-10.6 0.306-0.397 0.927-0.492 1.34-0.204 0.0353 0.0181 0.0697 0.0379 0.104 0.0572z"/><path d="m70.7 75.7c-11.4-6.58-22.8-13.2-34.2-19.8-2.22-1.28-4.43-2.56-6.65-3.83-1.64-0.855-3.83-0.46-5.06 0.93-0.592 0.663-0.947 1.49-1.41 2.24-7.64 13.2-15.3 26.5-22.9 39.7-0.874 1.63-0.507 3.82 0.863 5.07 0.666 0.61 1.5 0.972 2.27 1.44 13.2 7.64 26.5 15.3 39.7 22.9 1.63 0.873 3.82 0.507 5.06-0.863 0.618-0.677 0.986-1.53 1.46-2.3 2.39-4.14 4.78-8.27 7.16-12.4 0.844-1.66 0.425-3.85-0.99-5.07-0.662-0.571-1.47-0.926-2.21-1.38-3.13-1.81-6.26-3.62-9.4-5.41-1.64-0.818-3.79-0.415-5 0.958-0.591 0.666-0.95 1.49-1.41 2.24-0.624 1.08-1.24 2.16-1.88 3.23-0.328 0.375-0.946 0.443-1.34 0.135-3.5-2.01-6.99-4.03-10.5-6.06-0.525-0.228-0.711-0.968-0.378-1.43 4.23-7.34 8.46-14.7 12.7-22 0.181-0.295 0.334-0.61 0.533-0.892 0.33-0.363 0.934-0.423 1.33-0.124 3.5 2.02 7.01 4.04 10.5 6.07 0.517 0.24 0.679 0.976 0.344 1.43-0.918 1.62-1.88 3.21-2.77 4.84-0.804 1.69-0.308 3.91 1.17 5.07 0.65 0.516 1.41 0.858 2.12 1.29 3.13 1.8 6.24 3.62 9.38 5.4 1.67 0.827 3.87 0.387 5.06-1.05 0.553-0.657 0.904-1.45 1.35-2.17 2.39-4.14 4.78-8.27 7.16-12.4 0.84-1.65 0.429-3.84-0.974-5.05-0.324-0.287-0.689-0.524-1.07-0.73z"/><path d="m129 109c-2.63-1.52-5.25-3.04-7.89-4.54-1.66-0.834-3.86-0.402-5.07 1.03-0.56 0.657-0.909 1.46-1.36 2.18-2.37 4.1-4.72 8.2-7.1 12.3-0.316 0.41-0.967 0.492-1.38 0.173-3.47-2-6.94-3.99-10.4-6.01-0.21-0.114-0.426-0.246-0.519-0.478-0.168-0.332-0.134-0.751 0.0923-1.05 2.64-4.59 5.3-9.17 7.93-13.8 0.86-1.63 0.483-3.8-0.882-5.04-0.636-0.586-1.44-0.935-2.17-1.38-3.17-1.83-6.34-3.67-9.52-5.48-1.66-0.838-3.86-0.409-5.07 1.02-0.561 0.66-0.913 1.46-1.37 2.19-7.63 13.2-15.3 26.4-22.9 39.7-0.871 1.63-0.506 3.81 0.859 5.06 0.667 0.614 1.51 0.976 2.27 1.45 3.15 1.81 6.29 3.64 9.44 5.44 1.66 0.826 3.85 0.392 5.05-1.03 0.558-0.654 0.906-1.45 1.36-2.18 2.37-4.1 4.73-8.21 7.11-12.3 0.31-0.402 0.948-0.493 1.35-0.184 3.49 2.01 6.97 4.01 10.4 6.04 0.23 0.108 0.433 0.284 0.518 0.531 0.135 0.324 0.0825 0.707-0.129 0.987-2.53 4.4-5.08 8.79-7.61 13.2-0.327 0.539-0.622 1.11-0.717 1.74-0.269 1.52 0.335 3.19 1.59 4.12 0.631 0.471 1.35 0.804 2.02 1.22 3.13 1.8 6.25 3.62 9.38 5.4 1.64 0.809 3.78 0.402 4.99-0.97 0.592-0.67 0.953-1.5 1.42-2.25 7.63-13.2 15.3-26.4 22.9-39.7 0.851-1.59 0.524-3.72-0.769-4.98-0.643-0.628-1.47-1-2.23-1.46-0.555-0.32-1.11-0.639-1.67-0.959z"/><path d="m192 146c-1.52-0.857-3.01-1.76-4.54-2.59-1.69-0.781-3.88-0.276-5.03 1.2-0.512 0.649-0.853 1.41-1.29 2.11-3.37 5.85-6.75 11.7-10.1 17.5-2.09-1.21-4.18-2.41-6.26-3.62 3.71-6.43 7.43-12.9 11.1-19.3 0.862-1.66 0.45-3.87-0.97-5.09-0.658-0.57-1.46-0.923-2.2-1.38-1.17-0.665-2.31-1.36-3.5-1.99-1.68-0.761-3.85-0.26-5 1.2-0.517 0.651-0.861 1.42-1.3 2.12-3.23 5.6-6.46 11.2-9.7 16.8-0.305 0.409-0.948 0.507-1.36 0.199-1.52-0.88-3.06-1.75-4.57-2.65-0.44-0.3-0.517-0.975-0.196-1.39 3.49-6.06 6.99-12.1 10.5-18.2 0.922-1.57 0.634-3.73-0.638-5.03-0.65-0.676-1.53-1.05-2.31-1.53-1.18-0.675-2.35-1.37-3.54-2.02-1.68-0.807-3.87-0.337-5.05 1.11-0.534 0.647-0.874 1.42-1.32 2.13-5.01 8.68-10 17.4-15 26-0.862 1.63-0.482 3.81 0.89 5.05 0.67 0.606 1.51 0.969 2.27 1.44 3.09 1.79 6.19 3.57 9.28 5.37 0.399 0.318 0.48 0.956 0.166 1.36-1.78 3.1-3.58 6.19-5.35 9.3-0.829 1.67-0.39 3.86 1.04 5.06 0.657 0.554 1.45 0.903 2.18 1.35 3.14 1.81 6.27 3.63 9.41 5.42 1.64 0.814 3.8 0.403 5.01-0.982 0.585-0.668 0.944-1.49 1.41-2.24 1.49-2.58 2.98-5.18 4.49-7.75 0.324-0.391 0.958-0.462 1.36-0.149 3.6 2.07 7.19 4.16 10.8 6.22 1.67 0.836 3.88 0.395 5.07-1.04 0.555-0.661 0.906-1.46 1.36-2.19 5-8.67 10-17.3 15-26 0.844-1.6 0.497-3.74-0.817-4.98-0.377-0.361-0.822-0.639-1.27-0.894z"/><path d="m131 191c-4.94-2.84-9.86-5.7-14.8-8.53-1.65-0.843-3.84-0.43-5.06 0.976-0.574 0.659-0.926 1.47-1.38 2.21-7.64 13.2-15.3 26.5-22.9 39.7-0.873 1.64-0.499 3.83 0.883 5.07 0.669 0.605 1.51 0.967 2.27 1.44 13.2 7.64 26.5 15.3 39.7 22.9 1.63 0.87 3.81 0.506 5.06-0.861 0.612-0.666 0.975-1.51 1.45-2.27 7.64-13.2 15.3-26.5 22.9-39.7 0.862-1.61 0.513-3.77-0.822-5.02-0.648-0.616-1.48-0.975-2.23-1.44-4.49-2.59-8.98-5.19-13.5-7.77-1.35-0.695-3.09-0.603-4.32 0.308-1.8 1.18-3.6 2.37-5.41 3.54 0.128-2.38 0.27-4.75 0.372-7.13-0.0973-1.41-0.974-2.73-2.21-3.41zm-15.7 15c1.49 0.875 3 1.72 4.49 2.6 0.413 0.304 0.509 0.948 0.205 1.36-2.05 3.55-4.09 7.1-6.15 10.6-0.298 0.435-0.96 0.533-1.38 0.217-1.52-0.877-3.05-1.75-4.56-2.64-0.441-0.302-0.519-0.974-0.197-1.39 2.05-3.55 4.09-7.1 6.15-10.6 0.304-0.398 0.926-0.496 1.34-0.206 0.0357 0.0187 0.0711 0.0385 0.106 0.0582zm18.1 10.4c0.0279 0.0165 0.0551 0.0346 0.0812 0.0543 1.52 0.877 3.05 1.75 4.56 2.64 0.441 0.302 0.519 0.974 0.197 1.39-2.05 3.55-4.09 7.1-6.15 10.6-0.304 0.398-0.926 0.495-1.34 0.206-0.0357-0.0187-0.0708-0.0383-0.106-0.058-1.49-0.875-3-1.72-4.49-2.6-0.413-0.304-0.51-0.947-0.205-1.36 2.05-3.55 4.09-7.1 6.15-10.6 0.279-0.408 0.878-0.519 1.3-0.271z"/><path d="m232 6.82c-3.52-2.03-7.02-4.07-10.6-6.08-1.66-0.842-3.86-0.414-5.07 1.01-0.559 0.655-0.908 1.45-1.36 2.18-7.64 13.2-15.3 26.5-22.9 39.7-0.87 1.63-0.502 3.82 0.871 5.06 0.671 0.613 1.51 0.977 2.28 1.45 3.14 1.81 6.28 3.63 9.43 5.43 1.67 0.827 3.86 0.387 5.06-1.05 0.553-0.657 0.902-1.45 1.35-2.17 1.78-3.09 3.56-6.18 5.36-9.26 0.302-0.386 0.905-0.483 1.31-0.203 5.28 3.04 10.5 6.09 15.8 9.13 3.39 1.95 6.77 3.91 10.2 5.86 1.65 0.863 3.87 0.458 5.09-0.958 0.575-0.659 0.929-1.47 1.39-2.21 1.81-3.14 3.63-6.27 5.42-9.42 0.836-1.67 0.398-3.87-1.04-5.07-0.657-0.553-1.45-0.903-2.18-1.35-8.14-4.7-16.3-9.4-24.4-14.1-0.42-0.304-0.522-0.958-0.206-1.37 2.07-3.6 4.16-7.19 6.22-10.8 0.839-1.65 0.423-3.84-0.981-5.05-0.322-0.282-0.683-0.517-1.06-0.72z"/></g><g fill="#e6d300"><path d="m186 63c-1.26-0.726-2.87-0.295-3.59 0.962l-23.7 41c-0.726 1.26-0.295 2.87 0.963 3.59l41 23.7c1.26 0.726 2.87 0.295 3.59-0.962l6.13-10.6c0.726-1.26 0.295-2.87-0.963-3.59l-13.7-7.89c-1.26-0.726-1.69-2.33-0.963-3.59l6.14-10.6c0.726-1.26 2.33-1.69 3.59-0.962l13.7 7.9c1.26 0.714 2.85 0.282 3.58-0.97l6.13-10.6c0.726-1.26 0.295-2.87-0.963-3.59zm0.347 20.4 4.55 2.63c1.26 0.726 1.69 2.33 0.963 3.59l-6.14 10.6c-0.726 1.26-2.33 1.69-3.59 0.962l-4.55-2.63c-1.26-0.726-1.69-2.33-0.963-3.59l6.14-10.6c0.726-1.26 2.33-1.69 3.59-0.962z"/><path d="m29.3 53.6c-1.26-0.726-2.87-0.295-3.59 0.962l-23.7 41c-0.726 1.26-0.295 2.87 0.962 3.59l41 23.7c1.26 0.726 2.87 0.295 3.59-0.962l7.89-13.7c0.726-1.26 0.295-2.87-0.962-3.59l-10.6-6.13c-1.26-0.726-2.87-0.295-3.59 0.962l-2.63 4.56c-0.726 1.26-2.33 1.69-3.59 0.962l-10.6-6.14c-1.26-0.726-1.69-2.33-0.962-3.59l13.1-22.8c0.726-1.26 2.33-1.69 3.59-0.962l10.6 6.14c1.26 0.726 1.69 2.33 0.962 3.59l-2.63 4.55c-0.726 1.26-0.295 2.87 0.962 3.59l10.6 6.13c1.26 0.726 2.87 0.295 3.59-0.962l7.89-13.7c0.726-1.26 0.295-2.87-0.962-3.59z"/><path d="m90 88.7c-1.26-0.726-2.87-0.295-3.59 0.962l-23.7 41c-0.726 1.26-0.295 2.87 0.963 3.59l10.6 6.13c1.26 0.726 2.87 0.295 3.59-0.962l7.89-13.7c0.726-1.26 2.33-1.69 3.59-0.962l10.6 6.14c1.26 0.726 1.69 2.33 0.963 3.59l-7.89 13.7c-0.726 1.26-0.295 2.87 0.962 3.59l10.6 6.13c1.26 0.726 2.87 0.295 3.59-0.962l23.7-41c0.726-1.26 0.295-2.87-0.963-3.59l-10.6-6.13c-1.26-0.726-2.87-0.295-3.59 0.962l-7.89 13.7c-0.726 1.26-2.33 1.69-3.59 0.962l-10.6-6.14c-1.26-0.726-1.69-2.33-0.963-3.59l7.89-13.7c0.726-1.26 0.295-2.87-0.963-3.59z"/><path d="m151 124c-1.26-0.726-2.87-0.295-3.59 0.962l-15.8 27.3c-0.726 1.26-0.295 2.87 0.963 3.59l10.6 6.14c1.26 0.726 1.69 2.33 0.963 3.59l-5.26 9.11c-0.726 1.26-0.295 2.87 0.963 3.59l10.6 6.13c1.26 0.726 2.87 0.295 3.59-0.962l5.26-9.11c0.726-1.26 2.33-1.69 3.59-0.962l10.6 6.14c1.26 0.726 2.87 0.295 3.59-0.962l15.8-27.3c0.726-1.26 0.295-2.87-0.963-3.59l-4.55-2.63c-1.26-0.726-2.87-0.295-3.59 0.962l-11.8 20.5-9.11-5.26 11.8-20.5c0.726-1.26 0.295-2.87-0.963-3.59l-4.55-2.63c-1.26-0.726-2.87-0.295-3.59 0.962l-10.5 18.2c-0.726 1.26-2.33 1.69-3.59 0.962l-4.55-2.63c-1.26-0.726-1.69-2.33-0.963-3.59l10.5-18.2c0.726-1.26 0.295-2.87-0.963-3.59z"/><path d="m116 184c-1.26-0.726-2.87-0.295-3.59 0.962l-23.7 41c-0.726 1.26-0.295 2.87 0.962 3.59l41 23.7c1.26 0.726 2.87 0.295 3.59-0.962l23.7-41c0.726-1.26 0.295-2.87-0.962-3.59l-14.7-8.46c-0.77-0.444-1.67-0.455-2.42-0.109l-6.44 4.22-5e-3 2e-3c-1.05 0.575-1.92 0.0731-1.94-1.12l0.417-7.7c-0.0749-0.822-0.534-1.6-1.3-2.04zm0.347 20.4 4.57 2.64c1.25 0.73 1.67 2.33 0.95 3.58l-6.14 10.6c-0.726 1.26-2.33 1.69-3.59 0.963l-4.55-2.63c-1.26-0.726-1.69-2.33-0.963-3.59l6.14-10.6c0.726-1.26 2.33-1.69 3.59-0.962zm18.2 10.5 4.57 2.64c1.25 0.73 1.67 2.33 0.95 3.58l-6.14 10.6c-0.726 1.26-2.33 1.69-3.59 0.963l-4.55-2.63c-1.26-0.726-1.69-2.33-0.963-3.59l6.14-10.6c0.726-1.26 2.33-1.69 3.59-0.962z"/><path d="m221 2.31c-1.26-0.726-2.87-0.295-3.59 0.962l-23.7 41c-0.726 1.26-0.295 2.87 0.963 3.59l10.6 6.13c1.26 0.726 2.87 0.295 3.59-0.962l6.14-10.6c0.726-1.26 2.33-1.69 3.59-0.962l25.8 14.9c1.26 0.726 2.87 0.295 3.59-0.962l6.13-10.6c0.726-1.26 0.295-2.87-0.963-3.59l-25.8-14.9c-1.26-0.726-1.69-2.33-0.963-3.59l6.14-10.6c0.726-1.26 0.295-2.87-0.963-3.59z"/></g></svg>
